<mxfile host="Electron" modified="2023-08-20T14:02:07.617Z" agent="Mozilla/5.0 (Macintosh; Intel Mac OS X 10_15_7) AppleWebKit/537.36 (KHTML, like Gecko) draw.io/21.6.8 Chrome/114.0.5735.289 Electron/25.5.0 Safari/537.36" etag="0szZvQVMI8KWZnZfNtRO" version="21.6.8" type="device">
  <diagram name="第 1 页" id="uJOlck0mkDEi2l2RS95m">
    <mxGraphModel dx="1624" dy="832" grid="1" gridSize="10" guides="1" tooltips="1" connect="1" arrows="1" fold="1" page="0" pageScale="1" pageWidth="827" pageHeight="1169" math="0" shadow="0">
      <root>
        <mxCell id="0" />
        <mxCell id="1" parent="0" />
        <mxCell id="LjB1ZFMvc99zdgmDPJcf-4" style="edgeStyle=none;curved=1;rounded=0;orthogonalLoop=1;jettySize=auto;html=1;exitX=0.5;exitY=1;exitDx=0;exitDy=0;fontSize=20;startSize=8;endSize=8;fontColor=#FF1212;" edge="1" parent="1" source="LjB1ZFMvc99zdgmDPJcf-1" target="LjB1ZFMvc99zdgmDPJcf-2">
          <mxGeometry relative="1" as="geometry" />
        </mxCell>
        <mxCell id="LjB1ZFMvc99zdgmDPJcf-7" value="查缓存" style="edgeLabel;html=1;align=center;verticalAlign=middle;resizable=0;points=[];fontSize=20;fontColor=#FF1212;" vertex="1" connectable="0" parent="LjB1ZFMvc99zdgmDPJcf-4">
          <mxGeometry x="-0.1778" relative="1" as="geometry">
            <mxPoint as="offset" />
          </mxGeometry>
        </mxCell>
        <mxCell id="LjB1ZFMvc99zdgmDPJcf-1" value="应用程序" style="rounded=0;whiteSpace=wrap;html=1;fontSize=20;fontColor=#FF1212;" vertex="1" parent="1">
          <mxGeometry x="-230" y="170" width="120" height="60" as="geometry" />
        </mxCell>
        <mxCell id="LjB1ZFMvc99zdgmDPJcf-6" value="" style="edgeStyle=none;curved=1;rounded=0;orthogonalLoop=1;jettySize=auto;html=1;fontSize=20;startSize=8;endSize=8;fontColor=#FF1212;" edge="1" parent="1" source="LjB1ZFMvc99zdgmDPJcf-2" target="LjB1ZFMvc99zdgmDPJcf-3">
          <mxGeometry relative="1" as="geometry" />
        </mxCell>
        <mxCell id="LjB1ZFMvc99zdgmDPJcf-10" value="从数据库读取数据" style="edgeLabel;html=1;align=center;verticalAlign=middle;resizable=0;points=[];fontSize=20;fontColor=#FF1212;" vertex="1" connectable="0" parent="LjB1ZFMvc99zdgmDPJcf-6">
          <mxGeometry x="-0.1455" relative="1" as="geometry">
            <mxPoint as="offset" />
          </mxGeometry>
        </mxCell>
        <mxCell id="LjB1ZFMvc99zdgmDPJcf-2" value="cache" style="ellipse;whiteSpace=wrap;html=1;fontSize=20;fontColor=#FF1212;" vertex="1" parent="1">
          <mxGeometry x="-230" y="320" width="120" height="80" as="geometry" />
        </mxCell>
        <mxCell id="LjB1ZFMvc99zdgmDPJcf-3" value="DB" style="shape=cylinder3;whiteSpace=wrap;html=1;boundedLbl=1;backgroundOutline=1;size=15;fontSize=20;fontColor=#FF1212;" vertex="1" parent="1">
          <mxGeometry x="-200" y="500" width="60" height="80" as="geometry" />
        </mxCell>
        <mxCell id="LjB1ZFMvc99zdgmDPJcf-9" value="Read-Through" style="text;html=1;strokeColor=none;fillColor=none;align=center;verticalAlign=middle;whiteSpace=wrap;rounded=0;fontSize=20;fontColor=#FF1212;" vertex="1" parent="1">
          <mxGeometry x="-290" y="50" width="240" height="40" as="geometry" />
        </mxCell>
        <mxCell id="LjB1ZFMvc99zdgmDPJcf-15" style="edgeStyle=none;curved=1;rounded=0;orthogonalLoop=1;jettySize=auto;html=1;exitX=0.5;exitY=1;exitDx=0;exitDy=0;fontFamily=Helvetica;fontSize=20;fontColor=#FF1212;startSize=8;endSize=8;" edge="1" parent="1" source="LjB1ZFMvc99zdgmDPJcf-12" target="LjB1ZFMvc99zdgmDPJcf-14">
          <mxGeometry relative="1" as="geometry" />
        </mxCell>
        <mxCell id="LjB1ZFMvc99zdgmDPJcf-18" value="写入缓存" style="edgeLabel;html=1;align=center;verticalAlign=middle;resizable=0;points=[];fontSize=20;fontFamily=Helvetica;fontColor=#FF1212;" vertex="1" connectable="0" parent="LjB1ZFMvc99zdgmDPJcf-15">
          <mxGeometry x="-0.2222" y="-2" relative="1" as="geometry">
            <mxPoint as="offset" />
          </mxGeometry>
        </mxCell>
        <mxCell id="LjB1ZFMvc99zdgmDPJcf-12" value="应用程序" style="rounded=0;whiteSpace=wrap;html=1;strokeColor=default;fontFamily=Helvetica;fontSize=20;fontColor=#FF1212;fillColor=default;" vertex="1" parent="1">
          <mxGeometry x="200" y="170" width="120" height="60" as="geometry" />
        </mxCell>
        <mxCell id="LjB1ZFMvc99zdgmDPJcf-17" value="写入数据库" style="edgeStyle=none;curved=1;rounded=0;orthogonalLoop=1;jettySize=auto;html=1;exitX=0.5;exitY=1;exitDx=0;exitDy=0;fontFamily=Helvetica;fontSize=20;fontColor=#FF1212;startSize=8;endSize=8;" edge="1" parent="1" source="LjB1ZFMvc99zdgmDPJcf-14" target="LjB1ZFMvc99zdgmDPJcf-16">
          <mxGeometry relative="1" as="geometry" />
        </mxCell>
        <mxCell id="LjB1ZFMvc99zdgmDPJcf-14" value="cache" style="ellipse;whiteSpace=wrap;html=1;strokeColor=default;fontFamily=Helvetica;fontSize=20;fontColor=#FF1212;fillColor=default;" vertex="1" parent="1">
          <mxGeometry x="200" y="320" width="120" height="80" as="geometry" />
        </mxCell>
        <mxCell id="LjB1ZFMvc99zdgmDPJcf-16" value="DB" style="shape=cylinder3;whiteSpace=wrap;html=1;boundedLbl=1;backgroundOutline=1;size=15;strokeColor=default;fontFamily=Helvetica;fontSize=20;fontColor=#FF1212;fillColor=default;" vertex="1" parent="1">
          <mxGeometry x="230" y="500" width="60" height="80" as="geometry" />
        </mxCell>
        <mxCell id="LjB1ZFMvc99zdgmDPJcf-19" value="Write-Through" style="text;html=1;strokeColor=none;fillColor=none;align=center;verticalAlign=middle;whiteSpace=wrap;rounded=0;fontSize=20;fontFamily=Helvetica;fontColor=#FF1212;" vertex="1" parent="1">
          <mxGeometry x="185" y="55" width="150" height="35" as="geometry" />
        </mxCell>
      </root>
    </mxGraphModel>
  </diagram>
</mxfile>
